<svg aria-hidden="true" style="position: absolute; width: 0; height: 0; overflow: hidden;" version="1.1" xmlns="http://www.w3.org/2000/svg" xmlns:xlink="http://www.w3.org/1999/xlink">
<defs>
<symbol id="icon-arrow-0" viewBox="0 0 32 32">
<path stroke-linejoin="miter" stroke-linecap="butt" stroke-miterlimit="4" stroke-width="0.7619" d="M16.003 0.381c8.628 0 15.622 6.994 15.622 15.622s-6.994 15.622-15.622 15.622c-8.628 0-15.622-6.994-15.622-15.622s6.994-15.622 15.622-15.622z"></path>
<path stroke-linejoin="miter" stroke-linecap="butt" stroke-miterlimit="4" stroke-width="1.5238" d="M19.813 14.098l-3.81 3.81-3.81-3.81"></path>
</symbol>
<symbol id="icon-arrow-1" viewBox="0 0 32 32">
<path stroke-linejoin="miter" stroke-linecap="butt" stroke-miterlimit="4" stroke-width="0.7619" d="M16.003 31.625c8.628 0 15.622-6.994 15.622-15.622s-6.994-15.622-15.622-15.622c-8.628 0-15.622 6.994-15.622 15.622s6.994 15.622 15.622 15.622z"></path>
<path stroke-linejoin="miter" stroke-linecap="butt" stroke-miterlimit="4" stroke-width="1.5238" d="M19.813 17.908l-3.81-3.81-3.81 3.81"></path>
</symbol>
<symbol id="icon-arrow-2" viewBox="0 0 32 32">
<path stroke-linejoin="miter" stroke-linecap="butt" stroke-miterlimit="4" stroke-width="0.4706" d="M16.003 31.77c-8.708 0-15.767-7.059-15.767-15.767s7.059-15.767 15.767-15.767c8.708 0 15.767 7.059 15.767 15.767s-7.059 15.767-15.767 15.767z"></path>
<path stroke-linejoin="round" stroke-linecap="round" stroke-miterlimit="4" stroke-width="0.9412" d="M21.023 16.003h-10.041M14.747 19.768l-3.765-3.765 3.765-3.765"></path>
</symbol>
<symbol id="icon-arrow-3" viewBox="0 0 32 32">
<path stroke-linejoin="miter" stroke-linecap="butt" stroke-miterlimit="4" stroke-width="0.4706" d="M16.003 0.235c8.708 0 15.767 7.059 15.767 15.767s-7.059 15.767-15.767 15.767c-8.708 0-15.767-7.059-15.767-15.767s7.059-15.767 15.767-15.767z"></path>
<path stroke-linejoin="round" stroke-linecap="round" stroke-miterlimit="4" stroke-width="0.9412" d="M10.982 16.003h10.041M17.258 12.237l3.765 3.765-3.765 3.765"></path>
</symbol>
<symbol id="icon-Icon" viewBox="0 0 32 32">
<path stroke-linejoin="round" stroke-linecap="round" stroke-miterlimit="4" stroke-width="2.6667" d="M2.001 10.558h28.018M2.001 21.453h28.018"></path>
</symbol>
<symbol id="icon-Services-1" viewBox="0 0 32 32">
<path fill="#ed3b44" style="fill: var(--color1, #ed3b44)" d="M6.668 0h18.671c3.683 0 6.668 2.986 6.668 6.668v18.671c0 3.683-2.986 6.668-6.668 6.668h-18.671c-3.683 0-6.668-2.986-6.668-6.668v-18.671c0-3.683 2.986-6.668 6.668-6.668z"></path>
<path fill="none" stroke="#fafafa" style="stroke: var(--color2, #fafafa)" stroke-linejoin="round" stroke-linecap="round" stroke-miterlimit="4" stroke-width="1.3333" d="M21.339 22.005c0-0.931 0-1.396-0.115-1.774-0.265-0.854-0.924-1.514-1.76-1.773l-0.019-0.005c-0.379-0.115-0.844-0.115-1.774-0.115h-3.334c-0.931 0-1.396 0-1.774 0.115-0.854 0.265-1.514 0.924-1.773 1.76l-0.005 0.019c-0.115 0.379-0.115 0.844-0.115 1.774M16.004 16.004c1.657 0 3.001-1.343 3.001-3.001s-1.343-3.001-3.001-3.001v0c-1.657 0-3.001 1.343-3.001 3.001s1.343 3.001 3.001 3.001v0z"></path>
</symbol>
<symbol id="icon-Services-2" viewBox="0 0 32 32">
<path fill="#ed3b44" style="fill: var(--color1, #ed3b44)" d="M6.668 0h18.671c3.683 0 6.668 2.986 6.668 6.668v18.671c0 3.683-2.986 6.668-6.668 6.668h-18.671c-3.683 0-6.668-2.986-6.668-6.668v-18.671c0-3.683 2.986-6.668 6.668-6.668z"></path>
<path fill="none" stroke="#fafafa" style="stroke: var(--color2, #fafafa)" stroke-linejoin="round" stroke-linecap="round" stroke-miterlimit="4" stroke-width="1.3333" d="M12.066 15.49c-0.041-0.267-0.063-0.541-0.063-0.82 0-2.946 2.404-5.335 5.37-5.335s5.369 2.389 5.369 5.335c0 0.665-0.123 1.302-0.347 1.89-0.047 0.122-0.070 0.183-0.080 0.231-0.010 0.039-0.015 0.083-0.016 0.129v0c-0.001 0.049 0.005 0.102 0.019 0.209l0.269 2.181c0.029 0.237 0.043 0.355 0.004 0.44-0.035 0.076-0.095 0.134-0.169 0.167l-0.002 0.001c-0.087 0.037-0.204 0.020-0.44-0.015l-2.123-0.311c-0.111-0.016-0.167-0.025-0.217-0.024-0.001 0-0.003-0-0.005-0-0.046 0-0.090 0.005-0.133 0.015l0.004-0.001c-0.049 0.011-0.113 0.034-0.239 0.081-0.564 0.216-1.217 0.341-1.899 0.341-0.288 0-0.57-0.022-0.846-0.065l0.031 0.004M13.091 22.672c1.976 0 3.58-1.642 3.58-3.668s-1.603-3.668-3.58-3.668c-1.977 0-3.58 1.642-3.58 3.668 0 0.407 0.065 0.799 0.185 1.165 0.050 0.155 0.075 0.232 0.084 0.285 0.009 0.055 0.010 0.087 0.007 0.142-0.003 0.053-0.017 0.113-0.043 0.234l-0.407 1.842 1.997-0.273c0.109-0.015 0.163-0.023 0.211-0.022 0.051 0 0.077 0.003 0.127 0.013 0.047 0.009 0.115 0.033 0.254 0.082 0.347 0.126 0.747 0.199 1.164 0.199 0.001 0 0.002 0 0.003 0h-0z"></path>
</symbol>
<symbol id="icon-Services-3" viewBox="0 0 32 32">
<path fill="#ed3b44" style="fill: var(--color1, #ed3b44)" d="M6.668 0h18.671c3.683 0 6.668 2.986 6.668 6.668v18.671c0 3.683-2.986 6.668-6.668 6.668h-18.671c-3.683 0-6.668-2.986-6.668-6.668v-18.671c0-3.683 2.986-6.668 6.668-6.668z"></path>
<path fill="none" stroke="#fafafa" style="stroke: var(--color2, #fafafa)" stroke-linejoin="round" stroke-linecap="round" stroke-miterlimit="4" stroke-width="1.3333" d="M16.523 18.004l-2.519-2.519M9.336 22.672c1.334 0 3.073 0.228 3.984-0.683 0.422-0.422 0.684-1.006 0.684-1.65 0-1.289-1.045-2.334-2.334-2.334-0.645 0-1.228 0.261-1.65 0.684v0c-0.912 0.912 0 2.651-0.684 3.984z"></path>
<path fill="none" stroke="#fafafa" style="stroke: var(--color2, #fafafa)" stroke-linejoin="round" stroke-linecap="round" stroke-miterlimit="4" stroke-width="1.3333" d="M13.337 18.671c-0.327-0.327-0.491-0.491-0.584-0.663-0.101-0.183-0.16-0.402-0.16-0.634 0-0.25 0.069-0.485 0.189-0.685l-0.003 0.006c0.099-0.167 0.269-0.325 0.609-0.64l6.58-6.093c0.262-0.248 0.617-0.4 1.008-0.4 0.812 0 1.47 0.658 1.47 1.47 0 0.39-0.152 0.745-0.4 1.008l0.001-0.001-6.093 6.581c-0.315 0.34-0.473 0.509-0.64 0.609-0.194 0.117-0.428 0.186-0.679 0.186-0.232 0-0.451-0.059-0.641-0.164l0.007 0.003c-0.171-0.093-0.335-0.257-0.663-0.584z"></path>
</symbol>
<symbol id="icon-Services-4" viewBox="0 0 32 32">
<path fill="#ed3b44" style="fill: var(--color1, #ed3b44)" d="M6.668 0h18.671c3.683 0 6.668 2.986 6.668 6.668v18.671c0 3.683-2.986 6.668-6.668 6.668h-18.671c-3.683 0-6.668-2.986-6.668-6.668v-18.671c0-3.683 2.986-6.668 6.668-6.668z"></path>
<path fill="none" stroke="#fafafa" style="stroke: var(--color2, #fafafa)" stroke-linejoin="round" stroke-linecap="round" stroke-miterlimit="4" stroke-width="1.3333" d="M20.114 9.336h-8.219c-0.308 0-0.558 0.25-0.558 0.558v0c0 0 0 0 0 0 0 1.85 0.75 3.526 1.962 4.738l0.814 0.814c0.080 0.080 0.121 0.121 0.149 0.16 0.082 0.11 0.132 0.248 0.132 0.398s-0.050 0.289-0.133 0.4l0.001-0.002c-0.029 0.039-0.069 0.079-0.149 0.16l-0.814 0.813c-1.213 1.213-1.962 2.888-1.962 4.738 0 0 0 0 0 0v0c0 0.308 0.25 0.558 0.558 0.558h8.219c0.308 0 0.558-0.25 0.558-0.558v0c0-0 0-0 0-0 0-1.85-0.75-3.526-1.962-4.738l-0.814-0.814c-0.080-0.080-0.121-0.121-0.149-0.16-0.082-0.11-0.132-0.248-0.132-0.398s0.050-0.289 0.133-0.4l-0.001 0.002c0.029-0.039 0.069-0.079 0.149-0.16l0.814-0.813c1.213-1.213 1.962-2.888 1.962-4.738 0-0 0-0 0-0v0c0-0.308-0.25-0.558-0.558-0.558v0z"></path>
</symbol>
<symbol id="icon-x" viewBox="0 0 32 32">
<path stroke-linejoin="round" stroke-linecap="round" stroke-miterlimit="4" stroke-width="2.2857" d="M24.010 8.003l-16.007 16.007M8.003 8.003l16.007 16.007"></path>
</symbol>
</defs>
</svg>
